<mxfile host="Electron" agent="Mozilla/5.0 (Windows NT 10.0; Win64; x64) AppleWebKit/537.36 (KHTML, like Gecko) draw.io/24.5.3 Chrome/124.0.6367.207 Electron/30.0.6 Safari/537.36" modified="2024-07-29T04:46:18.154Z" etag="zmKTBxDFLo_zlhRYbRKG" version="24.5.3" type="device">
  <diagram id="C5RBs43oDa-KdzZeNtuy" name="Page-1">
    <mxGraphModel dx="1120" dy="572" grid="1" gridSize="10" guides="1" tooltips="1" connect="1" arrows="1" fold="1" page="1" pageScale="1" pageWidth="827" pageHeight="1169" math="0" shadow="0">
      <root>
        <mxCell id="WIyWlLk6GJQsqaUBKTNV-0" />
        <mxCell id="WIyWlLk6GJQsqaUBKTNV-1" parent="WIyWlLk6GJQsqaUBKTNV-0" />
        <mxCell id="8nPbcg6AZv1JEfT0RuWN-26" value="&lt;font size=&quot;1&quot; style=&quot;&quot; color=&quot;#cc0066&quot;&gt;&lt;b style=&quot;font-size: 22px;&quot;&gt;Product&lt;/b&gt;&lt;/font&gt;" style="rounded=0;whiteSpace=wrap;html=1;" parent="WIyWlLk6GJQsqaUBKTNV-1" vertex="1">
          <mxGeometry x="763" y="230" width="190" height="40" as="geometry" />
        </mxCell>
        <mxCell id="8nPbcg6AZv1JEfT0RuWN-27" value="&amp;nbsp; &amp;nbsp; productID&amp;nbsp; &amp;nbsp; &amp;nbsp;&amp;nbsp;" style="whiteSpace=wrap;html=1;" parent="WIyWlLk6GJQsqaUBKTNV-1" vertex="1">
          <mxGeometry x="763" y="270" width="190" height="40" as="geometry" />
        </mxCell>
        <mxCell id="TJgldpe_I-WTYHWx0ODK-9" style="edgeStyle=orthogonalEdgeStyle;rounded=0;orthogonalLoop=1;jettySize=auto;html=1;exitX=1;exitY=0.75;exitDx=0;exitDy=0;entryX=0;entryY=0.75;entryDx=0;entryDy=0;" parent="WIyWlLk6GJQsqaUBKTNV-1" source="8nPbcg6AZv1JEfT0RuWN-39" target="8nPbcg6AZv1JEfT0RuWN-46" edge="1">
          <mxGeometry relative="1" as="geometry" />
        </mxCell>
        <mxCell id="8nPbcg6AZv1JEfT0RuWN-39" value="name" style="rounded=0;whiteSpace=wrap;html=1;" parent="WIyWlLk6GJQsqaUBKTNV-1" vertex="1">
          <mxGeometry x="763" y="310" width="190" height="40" as="geometry" />
        </mxCell>
        <mxCell id="8nPbcg6AZv1JEfT0RuWN-40" value="" style="rounded=0;whiteSpace=wrap;html=1;" parent="WIyWlLk6GJQsqaUBKTNV-1" vertex="1">
          <mxGeometry x="460" y="330" width="190" height="40" as="geometry" />
        </mxCell>
        <mxCell id="8nPbcg6AZv1JEfT0RuWN-41" value="&lt;br&gt;&lt;div&gt;address       &lt;br&gt;&lt;br&gt;&lt;/div&gt;" style="rounded=0;whiteSpace=wrap;html=1;" parent="WIyWlLk6GJQsqaUBKTNV-1" vertex="1">
          <mxGeometry x="460" y="350" width="190" height="40" as="geometry" />
        </mxCell>
        <mxCell id="8nPbcg6AZv1JEfT0RuWN-42" value="description" style="rounded=0;whiteSpace=wrap;html=1;" parent="WIyWlLk6GJQsqaUBKTNV-1" vertex="1">
          <mxGeometry x="763" y="350" width="190" height="40" as="geometry" />
        </mxCell>
        <mxCell id="8nPbcg6AZv1JEfT0RuWN-43" value="&lt;div&gt;&lt;span style=&quot;background-color: initial;&quot;&gt;price&amp;nbsp;&lt;/span&gt;&lt;br&gt;&lt;/div&gt;" style="rounded=0;whiteSpace=wrap;html=1;" parent="WIyWlLk6GJQsqaUBKTNV-1" vertex="1">
          <mxGeometry x="763" y="390" width="190" height="40" as="geometry" />
        </mxCell>
        <mxCell id="TJgldpe_I-WTYHWx0ODK-10" style="edgeStyle=orthogonalEdgeStyle;rounded=0;orthogonalLoop=1;jettySize=auto;html=1;exitX=0.5;exitY=1;exitDx=0;exitDy=0;entryX=0.5;entryY=0;entryDx=0;entryDy=0;" parent="WIyWlLk6GJQsqaUBKTNV-1" source="8nPbcg6AZv1JEfT0RuWN-44" target="8nPbcg6AZv1JEfT0RuWN-65" edge="1">
          <mxGeometry relative="1" as="geometry" />
        </mxCell>
        <mxCell id="TJgldpe_I-WTYHWx0ODK-12" style="edgeStyle=orthogonalEdgeStyle;rounded=0;orthogonalLoop=1;jettySize=auto;html=1;exitX=0;exitY=1;exitDx=0;exitDy=0;" parent="WIyWlLk6GJQsqaUBKTNV-1" source="8nPbcg6AZv1JEfT0RuWN-44" target="8nPbcg6AZv1JEfT0RuWN-60" edge="1">
          <mxGeometry relative="1" as="geometry" />
        </mxCell>
        <mxCell id="8nPbcg6AZv1JEfT0RuWN-44" value="totalAmount" style="rounded=0;whiteSpace=wrap;html=1;" parent="WIyWlLk6GJQsqaUBKTNV-1" vertex="1">
          <mxGeometry x="1015" y="390" width="190" height="40" as="geometry" />
        </mxCell>
        <mxCell id="8nPbcg6AZv1JEfT0RuWN-45" value="status" style="rounded=0;whiteSpace=wrap;html=1;" parent="WIyWlLk6GJQsqaUBKTNV-1" vertex="1">
          <mxGeometry x="1015" y="340" width="190" height="50" as="geometry" />
        </mxCell>
        <mxCell id="8nPbcg6AZv1JEfT0RuWN-46" value="orderDate" style="rounded=0;whiteSpace=wrap;html=1;" parent="WIyWlLk6GJQsqaUBKTNV-1" vertex="1">
          <mxGeometry x="1015" y="310" width="190" height="40" as="geometry" />
        </mxCell>
        <mxCell id="8nPbcg6AZv1JEfT0RuWN-47" value="orderID" style="rounded=0;whiteSpace=wrap;html=1;" parent="WIyWlLk6GJQsqaUBKTNV-1" vertex="1">
          <mxGeometry x="1015" y="270" width="190" height="40" as="geometry" />
        </mxCell>
        <mxCell id="8nPbcg6AZv1JEfT0RuWN-48" value="&lt;font size=&quot;1&quot; color=&quot;#cccc00&quot;&gt;&lt;b style=&quot;font-size: 21px;&quot;&gt;Order&lt;/b&gt;&lt;/font&gt;" style="rounded=0;whiteSpace=wrap;html=1;" parent="WIyWlLk6GJQsqaUBKTNV-1" vertex="1">
          <mxGeometry x="1015" y="230" width="190" height="40" as="geometry" />
        </mxCell>
        <mxCell id="8nPbcg6AZv1JEfT0RuWN-49" value="checkCapacity()" style="rounded=0;whiteSpace=wrap;html=1;" parent="WIyWlLk6GJQsqaUBKTNV-1" vertex="1">
          <mxGeometry x="1015" y="750" width="190" height="40" as="geometry" />
        </mxCell>
        <mxCell id="8nPbcg6AZv1JEfT0RuWN-50" value="&lt;b&gt;&lt;font color=&quot;#33ffff&quot; style=&quot;font-size: 18px;&quot;&gt;&amp;nbsp;Shipment&amp;nbsp;&lt;/font&gt;&lt;/b&gt;" style="rounded=0;whiteSpace=wrap;html=1;" parent="WIyWlLk6GJQsqaUBKTNV-1" vertex="1">
          <mxGeometry x="750" y="550" width="190" height="40" as="geometry" />
        </mxCell>
        <mxCell id="8nPbcg6AZv1JEfT0RuWN-51" value="trackShipment()" style="rounded=0;whiteSpace=wrap;html=1;" parent="WIyWlLk6GJQsqaUBKTNV-1" vertex="1">
          <mxGeometry x="750" y="750" width="190" height="40" as="geometry" />
        </mxCell>
        <mxCell id="8nPbcg6AZv1JEfT0RuWN-52" value="assignDelivery()" style="rounded=0;whiteSpace=wrap;html=1;" parent="WIyWlLk6GJQsqaUBKTNV-1" vertex="1">
          <mxGeometry x="460" y="748" width="190" height="40" as="geometry" />
        </mxCell>
        <mxCell id="8nPbcg6AZv1JEfT0RuWN-53" value="status" style="rounded=0;whiteSpace=wrap;html=1;" parent="WIyWlLk6GJQsqaUBKTNV-1" vertex="1">
          <mxGeometry x="750" y="710" width="190" height="40" as="geometry" />
        </mxCell>
        <mxCell id="J2tipJgGmAND9KQI5Q8z-1" style="edgeStyle=orthogonalEdgeStyle;rounded=0;orthogonalLoop=1;jettySize=auto;html=1;exitX=0;exitY=0.5;exitDx=0;exitDy=0;entryX=1;entryY=0.5;entryDx=0;entryDy=0;" edge="1" parent="WIyWlLk6GJQsqaUBKTNV-1" source="8nPbcg6AZv1JEfT0RuWN-54" target="8nPbcg6AZv1JEfT0RuWN-58">
          <mxGeometry relative="1" as="geometry" />
        </mxCell>
        <mxCell id="8nPbcg6AZv1JEfT0RuWN-54" value="deliveryDate" style="rounded=0;whiteSpace=wrap;html=1;" parent="WIyWlLk6GJQsqaUBKTNV-1" vertex="1">
          <mxGeometry x="750" y="670" width="190" height="40" as="geometry" />
        </mxCell>
        <mxCell id="8nPbcg6AZv1JEfT0RuWN-55" value="shipmentDate" style="rounded=0;whiteSpace=wrap;html=1;" parent="WIyWlLk6GJQsqaUBKTNV-1" vertex="1">
          <mxGeometry x="750" y="630" width="190" height="40" as="geometry" />
        </mxCell>
        <mxCell id="8nPbcg6AZv1JEfT0RuWN-56" value="shipmentID" style="rounded=0;whiteSpace=wrap;html=1;" parent="WIyWlLk6GJQsqaUBKTNV-1" vertex="1">
          <mxGeometry x="750" y="590" width="190" height="40" as="geometry" />
        </mxCell>
        <mxCell id="8nPbcg6AZv1JEfT0RuWN-57" value="updateStatus()" style="rounded=0;whiteSpace=wrap;html=1;" parent="WIyWlLk6GJQsqaUBKTNV-1" vertex="1">
          <mxGeometry x="460" y="708" width="190" height="40" as="geometry" />
        </mxCell>
        <mxCell id="8nPbcg6AZv1JEfT0RuWN-58" value="licenseNumber" style="rounded=0;whiteSpace=wrap;html=1;" parent="WIyWlLk6GJQsqaUBKTNV-1" vertex="1">
          <mxGeometry x="460" y="668" width="190" height="40" as="geometry" />
        </mxCell>
        <mxCell id="8nPbcg6AZv1JEfT0RuWN-59" value="driverID" style="rounded=0;whiteSpace=wrap;html=1;" parent="WIyWlLk6GJQsqaUBKTNV-1" vertex="1">
          <mxGeometry x="460" y="590" width="190" height="40" as="geometry" />
        </mxCell>
        <mxCell id="8nPbcg6AZv1JEfT0RuWN-60" value="&lt;font size=&quot;1&quot; color=&quot;#660000&quot;&gt;&lt;b style=&quot;font-size: 22px;&quot;&gt;&amp;nbsp;Driver&lt;/b&gt;&lt;/font&gt;" style="rounded=0;whiteSpace=wrap;html=1;" parent="WIyWlLk6GJQsqaUBKTNV-1" vertex="1">
          <mxGeometry x="460" y="550" width="190" height="40" as="geometry" />
        </mxCell>
        <mxCell id="8nPbcg6AZv1JEfT0RuWN-61" value="addProduct()" style="rounded=0;whiteSpace=wrap;html=1;" parent="WIyWlLk6GJQsqaUBKTNV-1" vertex="1">
          <mxGeometry x="1015" y="710" width="190" height="40" as="geometry" />
        </mxCell>
        <mxCell id="J2tipJgGmAND9KQI5Q8z-0" style="edgeStyle=orthogonalEdgeStyle;rounded=0;orthogonalLoop=1;jettySize=auto;html=1;entryX=1;entryY=0.5;entryDx=0;entryDy=0;" edge="1" parent="WIyWlLk6GJQsqaUBKTNV-1" source="8nPbcg6AZv1JEfT0RuWN-62" target="8nPbcg6AZv1JEfT0RuWN-54">
          <mxGeometry relative="1" as="geometry" />
        </mxCell>
        <mxCell id="8nPbcg6AZv1JEfT0RuWN-62" value="capacity&amp;nbsp;" style="rounded=0;whiteSpace=wrap;html=1;" parent="WIyWlLk6GJQsqaUBKTNV-1" vertex="1">
          <mxGeometry x="1015" y="670" width="190" height="40" as="geometry" />
        </mxCell>
        <mxCell id="8nPbcg6AZv1JEfT0RuWN-63" value="location" style="rounded=0;whiteSpace=wrap;html=1;" parent="WIyWlLk6GJQsqaUBKTNV-1" vertex="1">
          <mxGeometry x="1015" y="630" width="190" height="40" as="geometry" />
        </mxCell>
        <mxCell id="8nPbcg6AZv1JEfT0RuWN-64" value="warehouseID" style="rounded=0;whiteSpace=wrap;html=1;" parent="WIyWlLk6GJQsqaUBKTNV-1" vertex="1">
          <mxGeometry x="1015" y="590" width="190" height="40" as="geometry" />
        </mxCell>
        <mxCell id="8nPbcg6AZv1JEfT0RuWN-65" value="&lt;b&gt;&lt;font color=&quot;#994c00&quot; style=&quot;font-size: 19px;&quot;&gt;Warehouse&amp;nbsp;&lt;/font&gt;&lt;/b&gt;" style="rounded=0;whiteSpace=wrap;html=1;" parent="WIyWlLk6GJQsqaUBKTNV-1" vertex="1">
          <mxGeometry x="1015" y="550" width="190" height="40" as="geometry" />
        </mxCell>
        <mxCell id="8nPbcg6AZv1JEfT0RuWN-66" value="name" style="rounded=0;whiteSpace=wrap;html=1;" parent="WIyWlLk6GJQsqaUBKTNV-1" vertex="1">
          <mxGeometry x="460" y="628" width="190" height="40" as="geometry" />
        </mxCell>
        <mxCell id="8nPbcg6AZv1JEfT0RuWN-70" value="&#xa;customerID    &#xa;&#xa;" style="rounded=0;whiteSpace=wrap;html=1;" parent="WIyWlLk6GJQsqaUBKTNV-1" vertex="1">
          <mxGeometry x="460" y="270" width="190" height="40" as="geometry" />
        </mxCell>
        <mxCell id="TJgldpe_I-WTYHWx0ODK-8" style="edgeStyle=orthogonalEdgeStyle;rounded=0;orthogonalLoop=1;jettySize=auto;html=1;exitX=1;exitY=0.5;exitDx=0;exitDy=0;entryX=0;entryY=0.5;entryDx=0;entryDy=0;" parent="WIyWlLk6GJQsqaUBKTNV-1" source="8nPbcg6AZv1JEfT0RuWN-72" target="8nPbcg6AZv1JEfT0RuWN-39" edge="1">
          <mxGeometry relative="1" as="geometry" />
        </mxCell>
        <mxCell id="8nPbcg6AZv1JEfT0RuWN-72" value="&amp;nbsp; &amp;nbsp; &amp;nbsp;&amp;nbsp;&lt;span style=&quot;background-color: initial;&quot;&gt;name&amp;nbsp; &amp;nbsp; &amp;nbsp; &amp;nbsp; &amp;nbsp;&amp;nbsp;&lt;/span&gt;" style="rounded=0;whiteSpace=wrap;html=1;" parent="WIyWlLk6GJQsqaUBKTNV-1" vertex="1">
          <mxGeometry x="460" y="310" width="190" height="40" as="geometry" />
        </mxCell>
        <mxCell id="8nPbcg6AZv1JEfT0RuWN-73" value="createOrder" style="rounded=0;whiteSpace=wrap;html=1;" parent="WIyWlLk6GJQsqaUBKTNV-1" vertex="1">
          <mxGeometry x="460" y="390" width="190" height="40" as="geometry" />
        </mxCell>
        <mxCell id="8nPbcg6AZv1JEfT0RuWN-79" value="&lt;b&gt;&lt;font color=&quot;#00cc00&quot; style=&quot;font-size: 18px;&quot;&gt;Manager&lt;/font&gt;&lt;/b&gt;" style="rounded=0;whiteSpace=wrap;html=1;" parent="WIyWlLk6GJQsqaUBKTNV-1" vertex="1">
          <mxGeometry x="450" y="900" width="200" height="40" as="geometry" />
        </mxCell>
        <mxCell id="8nPbcg6AZv1JEfT0RuWN-80" value="managerID&amp;nbsp;" style="rounded=0;whiteSpace=wrap;html=1;" parent="WIyWlLk6GJQsqaUBKTNV-1" vertex="1">
          <mxGeometry x="450" y="940" width="200" height="40" as="geometry" />
        </mxCell>
        <mxCell id="8nPbcg6AZv1JEfT0RuWN-81" value="name&amp;nbsp;" style="rounded=0;whiteSpace=wrap;html=1;" parent="WIyWlLk6GJQsqaUBKTNV-1" vertex="1">
          <mxGeometry x="450" y="980" width="200" height="40" as="geometry" />
        </mxCell>
        <mxCell id="8nPbcg6AZv1JEfT0RuWN-82" value="email" style="rounded=0;whiteSpace=wrap;html=1;" parent="WIyWlLk6GJQsqaUBKTNV-1" vertex="1">
          <mxGeometry x="450" y="1020" width="200" height="40" as="geometry" />
        </mxCell>
        <mxCell id="8nPbcg6AZv1JEfT0RuWN-83" value="manageOrder()" style="rounded=0;whiteSpace=wrap;html=1;" parent="WIyWlLk6GJQsqaUBKTNV-1" vertex="1">
          <mxGeometry x="450" y="1060" width="200" height="40" as="geometry" />
        </mxCell>
        <mxCell id="8nPbcg6AZv1JEfT0RuWN-84" value="generateReport()" style="rounded=0;whiteSpace=wrap;html=1;" parent="WIyWlLk6GJQsqaUBKTNV-1" vertex="1">
          <mxGeometry x="450" y="1100" width="200" height="40" as="geometry" />
        </mxCell>
        <mxCell id="8nPbcg6AZv1JEfT0RuWN-85" value="" style="endArrow=classic;html=1;rounded=0;exitX=0.5;exitY=0;exitDx=0;exitDy=0;" parent="WIyWlLk6GJQsqaUBKTNV-1" source="8nPbcg6AZv1JEfT0RuWN-79" edge="1">
          <mxGeometry width="50" height="50" relative="1" as="geometry">
            <mxPoint x="550" y="890" as="sourcePoint" />
            <mxPoint x="550" y="790" as="targetPoint" />
            <Array as="points" />
          </mxGeometry>
        </mxCell>
        <mxCell id="TJgldpe_I-WTYHWx0ODK-17" style="edgeStyle=orthogonalEdgeStyle;rounded=0;orthogonalLoop=1;jettySize=auto;html=1;exitX=0.5;exitY=0.5;exitDx=0;exitDy=0;exitPerimeter=0;entryX=1;entryY=0.75;entryDx=0;entryDy=0;" parent="WIyWlLk6GJQsqaUBKTNV-1" source="TJgldpe_I-WTYHWx0ODK-4" target="8nPbcg6AZv1JEfT0RuWN-81" edge="1">
          <mxGeometry relative="1" as="geometry" />
        </mxCell>
        <mxCell id="TJgldpe_I-WTYHWx0ODK-19" style="edgeStyle=orthogonalEdgeStyle;rounded=0;orthogonalLoop=1;jettySize=auto;html=1;exitX=1;exitY=1;exitDx=0;exitDy=0;exitPerimeter=0;" parent="WIyWlLk6GJQsqaUBKTNV-1" source="TJgldpe_I-WTYHWx0ODK-4" target="TJgldpe_I-WTYHWx0ODK-18" edge="1">
          <mxGeometry relative="1" as="geometry" />
        </mxCell>
        <mxCell id="TJgldpe_I-WTYHWx0ODK-4" value="&lt;b&gt;&lt;font color=&quot;#99004d&quot; style=&quot;font-size: 21px;&quot;&gt;Admin&lt;/font&gt;&lt;/b&gt;" style="shape=umlActor;verticalLabelPosition=bottom;verticalAlign=top;html=1;outlineConnect=0;fillColor=#a20025;fontColor=#ffffff;strokeColor=#6F0000;strokeWidth=8;perimeterSpacing=2;" parent="WIyWlLk6GJQsqaUBKTNV-1" vertex="1">
          <mxGeometry x="860" y="970" width="30" height="60" as="geometry" />
        </mxCell>
        <mxCell id="TJgldpe_I-WTYHWx0ODK-15" style="edgeStyle=orthogonalEdgeStyle;rounded=0;orthogonalLoop=1;jettySize=auto;html=1;exitX=0;exitY=1;exitDx=0;exitDy=0;entryX=0.593;entryY=-0.002;entryDx=0;entryDy=0;entryPerimeter=0;" parent="WIyWlLk6GJQsqaUBKTNV-1" source="8nPbcg6AZv1JEfT0RuWN-44" target="8nPbcg6AZv1JEfT0RuWN-50" edge="1">
          <mxGeometry relative="1" as="geometry" />
        </mxCell>
        <mxCell id="TJgldpe_I-WTYHWx0ODK-18" value="Access all permission" style="shape=hexagon;perimeter=hexagonPerimeter2;whiteSpace=wrap;html=1;fixedSize=1;" parent="WIyWlLk6GJQsqaUBKTNV-1" vertex="1">
          <mxGeometry x="1010" y="1060" width="120" height="80" as="geometry" />
        </mxCell>
        <mxCell id="TJgldpe_I-WTYHWx0ODK-20" value="&lt;b&gt;&lt;font style=&quot;font-size: 20px;&quot; color=&quot;#006600&quot;&gt;Customer&lt;/font&gt;&lt;/b&gt;" style="rounded=0;whiteSpace=wrap;html=1;" parent="WIyWlLk6GJQsqaUBKTNV-1" vertex="1">
          <mxGeometry x="460" y="230" width="190" height="40" as="geometry" />
        </mxCell>
        <mxCell id="TJgldpe_I-WTYHWx0ODK-28" value="" style="endArrow=classic;html=1;rounded=0;exitX=0;exitY=0;exitDx=0;exitDy=0;entryX=0;entryY=0.75;entryDx=0;entryDy=0;" parent="WIyWlLk6GJQsqaUBKTNV-1" source="8nPbcg6AZv1JEfT0RuWN-58" target="8nPbcg6AZv1JEfT0RuWN-72" edge="1">
          <mxGeometry width="50" height="50" relative="1" as="geometry">
            <mxPoint x="620" y="530" as="sourcePoint" />
            <mxPoint x="670" y="480" as="targetPoint" />
            <Array as="points">
              <mxPoint x="360" y="670" />
              <mxPoint x="360" y="340" />
            </Array>
          </mxGeometry>
        </mxCell>
        <mxCell id="TJgldpe_I-WTYHWx0ODK-29" value="&lt;b&gt;&lt;font color=&quot;#cccc00&quot; style=&quot;font-size: 24px;&quot;&gt;Class Diagram&lt;/font&gt;&lt;/b&gt;" style="rounded=0;whiteSpace=wrap;html=1;" parent="WIyWlLk6GJQsqaUBKTNV-1" vertex="1">
          <mxGeometry x="650" y="160" width="380" height="60" as="geometry" />
        </mxCell>
        <mxCell id="TJgldpe_I-WTYHWx0ODK-30" value="&lt;b&gt;&lt;font color=&quot;#f03611&quot; style=&quot;font-size: 22px;&quot;&gt;Logistics Management System&lt;/font&gt;&lt;/b&gt;" style="rounded=0;whiteSpace=wrap;html=1;" parent="WIyWlLk6GJQsqaUBKTNV-1" vertex="1">
          <mxGeometry x="570" y="50" width="510" height="60" as="geometry" />
        </mxCell>
      </root>
    </mxGraphModel>
  </diagram>
</mxfile>
